<?xml version="1.0" encoding="utf-8"?>
<!-- Generator: Adobe Illustrator 26.1.0, SVG Export Plug-In . SVG Version: 6.00 Build 0)  -->
<svg version="1.1" id="Layer_1" xmlns="http://www.w3.org/2000/svg" xmlns:xlink="http://www.w3.org/1999/xlink" x="0px" y="0px"
	 viewBox="0 0 360 360" style="enable-background:new 0 0 360 360;" xml:space="preserve">
<style type="text/css">
	.st0{fill:none;}
	.st1{fill-rule:evenodd;clip-rule:evenodd;fill:#BECFD0;}
</style>
<g id="Icons" transform="translate(6 2)">
	<g id="Rounded" transform="translate(-548 -3434)">
		<g id="Navigation" transform="translate(100 3378)">
			<g id="_-Round-_-Navigation-_-arrow_back_ios" transform="translate(442 54)">
				<g id="Group_34">
					<path id="Path" class="st0" d="M-1.38,0h355.89v355.89H-1.38V0z"/>
					<path id="_-Icon-Color" class="st1" d="M245.07,44.34c-7.22-7.25-18.94-7.27-26.19-0.05c-0.02,0.02-0.04,0.04-0.05,0.05
						L95.6,167.56c-5.75,5.78-5.75,15.12,0,20.91L218.82,311.7c7.06,7.44,18.81,7.74,26.25,0.68s7.74-18.81,0.68-26.25
						c-0.22-0.23-0.45-0.46-0.68-0.68L137.71,177.94L245.22,70.44C252.37,63.18,252.31,51.51,245.07,44.34z"/>
				</g>
			</g>
		</g>
	</g>
</g>
</svg>
