<?xml version="1.0" encoding="UTF-8"?><svg id="a" xmlns="http://www.w3.org/2000/svg" viewBox="0 0 792 792"><defs><style>.b{fill:#d8af05;}.b,.c,.d,.e{stroke:#434a5d;stroke-miterlimit:10;}.f{font-family:PalatinoLinotype-Bold, Palatino Linotype;font-size:72px;}.f,.g{fill:#434a5d;}.c{stroke-width:3px;}.c,.d,.e{fill:none;stroke-linecap:round;}.e{stroke-width:2px;}</style></defs><circle class="b" cx="517.84" cy="312.09" r="19.89"/><path class="d" d="M512.47,323.32s4.11,6.05,10.74,0"/><path class="e" d="M489.24,292.2s28.43-42.38,59.12-9.95c0,0,13.29,8.21,9.24,33.29,0,0,19.02,42.8-29.92,31.47,0,0-40.68,24.3-41.98-21.09-5.62,0-37.99-26.42,3.54-33.71Z"/><path class="c" d="M464.55,288.18v-32.07c0-2.33,1.89-4.23,4.23-4.23h29.95"/><path class="c" d="M536.1,379.66h27.46c2,0,3.62-1.62,3.62-3.62v-25.64"/><text class="f" transform="translate(224.72 558.16)"><tspan x="0" y="0">FOODY</tspan></text><path class="g" d="M288.03,359.99l391.69,74s-5.17,37.99-18.67,50.67c-11,10.33-25.33,25.33-82.67,20-49.89-4.64-203.74-36.54-242.88-44.75-6.43-1.35-12.38-4.03-17.65-7.96-16.64-12.39-51.06-41.32-41.86-62.58,.5-1.15,1.88-1.74,3.09-1.42l16.95,4.37s-43.22-37.55-92.39-44.29c-4.33-.59-8.75,.12-12.82,1.7l-.1,.04c-3.7,1.44-7.71,1.86-11.63,1.26-15.24-2.35-57.54-8.11-99.41-7.04-9.02,.23-26.67-30,2.67-35.34,23.22-4.22,77.37,4.93,98.92,8.92,5.91,1.09,11.39,3.82,15.85,7.83l6.57,5.91,80.67,30.34,3.67-1.67Z"/><path class="g" d="M647.26,175.31c-120.69,46.67-244.67,0-244.67,0,11.33,26.67,0,194.68,0,194.68l39.34,8.97V227.31c66.67,20,154.29,1.51,154.29,1.51-37.62,60.49-3.61,177.84-3.61,177.84l36.67,7.32c-33.34-78.67,17.99-238.68,17.99-238.68Zm-105.94,47.7l-51.68-2.67c-3.78-.19-6.71-3.45-6.52-7.23,.19-3.78,3.45-6.71,7.23-6.52l51.68,2.67c3.78,.19,6.71,3.45,6.52,7.23-.19,3.78-3.45,6.71-7.23,6.52Z"/></svg>