<?xml version="1.0" encoding="utf-8"?>
<!-- Generator: Adobe Illustrator 26.1.0, SVG Export Plug-In . SVG Version: 6.00 Build 0)  -->
<svg version="1.1" id="Layer_1" xmlns="http://www.w3.org/2000/svg" xmlns:xlink="http://www.w3.org/1999/xlink" x="0px" y="0px"
	 viewBox="0 0 360 360" style="enable-background:new 0 0 360 360;" xml:space="preserve">
<style type="text/css">
	.st0{fill:#BECFD0;}
</style>
<g id="Layer_47" transform="translate(-10.5 -17.84)">
	<path id="Path_91" class="st0" d="M31.6,116.39H193c6.68-0.18,11.96-5.74,11.78-12.43c-0.17-6.43-5.35-11.61-11.78-11.78H31.6
		c-6.68-0.18-12.25,5.09-12.43,11.78c-0.18,6.68,5.09,12.25,11.78,12.43C31.17,116.4,31.38,116.4,31.6,116.39z"/>
	<path id="Path_92" class="st0" d="M366.5,206.46c0-6.68-5.42-12.1-12.1-12.11H31.6c-6.68-0.18-12.25,5.09-12.43,11.78
		c-0.18,6.68,5.09,12.25,11.78,12.43c0.22,0.01,0.43,0.01,0.65,0h322.8C361.08,218.56,366.5,213.14,366.5,206.46z"/>
	<path id="Path_93" class="st0" d="M354.4,296.52H193c-6.68-0.18-12.25,5.09-12.43,11.78c-0.18,6.68,5.09,12.25,11.78,12.43
		c0.22,0.01,0.43,0.01,0.65,0h161.4c6.68,0.18,12.25-5.09,12.43-11.78c0.18-6.68-5.09-12.25-11.78-12.43
		C354.83,296.51,354.62,296.51,354.4,296.52z"/>
</g>
</svg>
