<?xml version="1.0" encoding="UTF-8"?><svg id="a" xmlns="http://www.w3.org/2000/svg" viewBox="0 0 87 87"><defs><style>.j,.k,.l,.m{fill:none;}.k,.l,.m{stroke:#faa930;stroke-width:2px;}.l,.m{stroke-miterlimit:10;}.m{stroke-linecap:round;}</style></defs><g id="b"><circle class="j" cx="43.5" cy="43.5" r="43.5"/><circle class="k" cx="43.5" cy="43.5" r="42.5"/></g><circle id="c" class="l" cx="43.5" cy="43.5" r="26.31"/><g><path id="d" class="l" d="M54.98,39.59c-.33,6.34-5.74,11.21-12.08,10.87-5.87-.31-10.56-5-10.87-10.87"/><path id="e" class="l" d="M41.76,50.7l-4,10.63c-.41,1.09,.14,2.31,1.23,2.72,.24,.09,.49,.14,.74,.14h6.22c1.16,0,2.11-.94,2.11-2.11,0-.24-.04-.47-.12-.7l-3.71-10.58-2.47-.09Z"/><rect id="f" class="l" x="35.76" y="22.82" width="14.99" height="23.31" rx="7.49" ry="7.49"/><line id="g" class="m" x1="46.04" y1="29.15" x2="46.04" y2="39.41"/><line id="h" class="m" x1="40.26" y1="29.15" x2="40.26" y2="39.41"/><line id="i" class="m" x1="43.14" y1="26.08" x2="43.14" y2="43.72"/></g></svg>